<svg width="8" height="5" viewBox="0 0 8 5" fill="none" xmlns="http://www.w3.org/2000/svg">
<path d="M3.52932 4.31768L0.531821 1.38651C0.178071 1.04164 0.465571 0.5 1.00245 0.5H6.99745C7.1176 0.499912 7.23523 0.529455 7.33627 0.585091C7.4373 0.640727 7.51744 0.720098 7.5671 0.813699C7.61676 0.907299 7.63383 1.01116 7.61627 1.11285C7.5987 1.21454 7.54725 1.30974 7.46807 1.38705L4.47057 4.31715C4.41191 4.37458 4.33956 4.42061 4.25839 4.45214C4.17722 4.48368 4.0891 4.5 3.99995 4.5C3.91079 4.5 3.82267 4.48368 3.7415 4.45214C3.66033 4.42061 3.58798 4.37458 3.52932 4.31715V4.31768Z" fill="#212121"/>
</svg>
