<svg width="12" height="12" viewBox="0 0 12 12" fill="none" xmlns="http://www.w3.org/2000/svg">
<path d="M9.55008 7.40356C9.3947 7.55429 9.32331 7.77229 9.3587 7.98607L9.89203 10.9407C9.93703 11.1911 9.83144 11.4445 9.62207 11.5892C9.4169 11.7394 9.14393 11.7574 8.92016 11.6373L6.26311 10.2501C6.17072 10.2008 6.06813 10.1744 5.96315 10.1714H5.80057C5.74418 10.1798 5.68898 10.1978 5.63859 10.2254L2.98094 11.6192C2.84955 11.6853 2.70077 11.7087 2.55499 11.6853C2.19984 11.618 1.96287 11.2794 2.02106 10.922L2.55499 7.96746C2.59039 7.75187 2.519 7.53268 2.36362 7.37954L0.1973 5.2777C0.0161234 5.10175 -0.0468684 4.83752 0.0359208 4.59911C0.11631 4.3613 0.321483 4.18775 0.569251 4.14872L3.55086 3.71574C3.77763 3.69232 3.97681 3.5542 4.07879 3.35002L5.39262 0.653663C5.42382 0.593611 5.46401 0.538363 5.51261 0.491522L5.5666 0.449485C5.59479 0.418258 5.62719 0.392435 5.66319 0.371417L5.72858 0.347396L5.83056 0.305359H6.08313C6.3087 0.328779 6.50728 0.463897 6.61106 0.665674L7.94229 3.35002C8.03828 3.54639 8.22485 3.68271 8.44022 3.71574L11.4218 4.14872C11.6738 4.18475 11.8844 4.3589 11.9678 4.59911C12.0464 4.83992 11.9786 5.10415 11.7938 5.2777L9.55008 7.40356Z" fill="#F2CA8C"/>
</svg>
