<svg width="20" height="21" viewBox="0 0 20 21" fill="none" xmlns="http://www.w3.org/2000/svg">
<path d="M11.0276 7.94583L7.96992 5.59493V14.8343L11.0276 12.4834L13.985 10.2146L11.0276 7.94583ZM11.0276 7.94583L7.96992 5.59493V14.8343L11.0276 12.4834L13.985 10.2146L11.0276 7.94583ZM11.0276 7.94583L7.96992 5.59493V14.8343L11.0276 12.4834L13.985 10.2146L11.0276 7.94583ZM8.97243 2.07372V0C6.95739 0.205319 5.12281 1.02659 3.6391 2.26877L5.06266 3.7368C6.19544 2.83123 7.54648 2.25654 8.97243 2.07372ZM3.64912 5.18429L2.21554 3.72653C0.96723 5.28345 0.196397 7.18361 0 9.18801H2.02506C2.20551 7.68918 2.78697 6.32381 3.64912 5.18429ZM2.02506 11.2412H0C0.200501 13.3046 1.00251 15.1833 2.21554 16.7027L3.64912 15.2346C2.76327 14.0795 2.20178 12.6988 2.02506 11.2412ZM3.6391 18.1604C5.16048 19.437 7.01554 20.2262 8.97243 20.4292V18.3555C7.54648 18.1727 6.19544 17.598 5.06266 16.6924L3.6391 18.1604ZM20 10.2146C20 15.5118 16.0702 19.8851 11.0276 20.4292V18.3555C14.9574 17.8217 17.995 14.3723 17.995 10.2146C17.995 6.0569 14.9574 2.60755 11.0276 2.07372V0C16.0702 0.544094 20 4.91738 20 10.2146Z" fill="white"/>
</svg>
