<svg width="9" height="8" viewBox="0 0 9 8" fill="none" xmlns="http://www.w3.org/2000/svg">
<path d="M6.52683 7.64893C6.45887 7.64884 6.39196 7.6338 6.33179 7.60508L4.19399 6.58321L2.05618 7.60508C1.98692 7.63818 1.90884 7.65301 1.83079 7.64789C1.75274 7.64277 1.67782 7.61789 1.6145 7.57608C1.55119 7.53427 1.502 7.47719 1.47251 7.41129C1.44301 7.3454 1.43438 7.27331 1.4476 7.20319L1.8557 5.03897L0.126414 3.50617C0.0704581 3.4565 0.0308913 3.3936 0.012181 3.32457C-0.00652923 3.25555 -0.00363779 3.18314 0.0205289 3.11552C0.0446956 3.04791 0.089175 2.98778 0.148944 2.94193C0.208714 2.89609 0.281393 2.86634 0.358774 2.85606L2.74907 2.54035L3.81777 0.571351C3.85642 0.51191 3.91144 0.462652 3.97742 0.428434C4.04339 0.394217 4.11803 0.376221 4.19399 0.376221C4.26994 0.376221 4.34459 0.394217 4.41056 0.428434C4.47654 0.462652 4.53156 0.51191 4.57021 0.571351L5.63891 2.54035L8.0292 2.85606C8.10667 2.86629 8.17944 2.89602 8.23929 2.94189C8.29914 2.98777 8.34367 3.04795 8.36784 3.11563C8.39202 3.18332 8.39488 3.2558 8.3761 3.32489C8.35732 3.39397 8.31764 3.4569 8.26156 3.50655L6.53228 5.03897L6.94038 7.20319C6.9507 7.25793 6.94775 7.31406 6.93172 7.36766C6.9157 7.42125 6.88698 7.47101 6.8476 7.51347C6.80821 7.55592 6.75909 7.59004 6.70369 7.61344C6.64828 7.63684 6.58792 7.64895 6.52683 7.64893Z" fill="#FFD937"/>
</svg>
