<svg width="18" height="22" viewBox="0 0 18 22" fill="none" xmlns="http://www.w3.org/2000/svg">
<path d="M16.9667 2.83071C16.713 2.64355 16.4199 2.52026 16.111 2.47084C15.8021 2.42142 15.4862 2.44725 15.1889 2.54626C14.4046 2.7721 13.5923 2.87943 12.7778 2.86485C11.574 2.79793 10.3937 2.49673 9.3 1.97735C7.94892 1.33748 6.48749 0.97785 5.00001 0.919189C1.78891 0.919189 0.555574 2.057 0.333352 2.21629C0.227028 2.32301 0.142732 2.45052 0.0854702 2.59125C0.0282086 2.73198 -0.000850573 2.88306 1.89522e-05 3.03552V20.262C1.89522e-05 20.5637 0.117082 20.8531 0.325456 21.0665C0.533829 21.2799 0.816444 21.3998 1.11113 21.3998C1.40581 21.3998 1.68843 21.2799 1.8968 21.0665C2.10517 20.8531 2.22224 20.5637 2.22224 20.262V15.3694C3.1076 15.0223 4.05275 14.8635 5.00001 14.9029C6.2038 14.9698 7.38411 15.271 8.47779 15.7904C9.82887 16.4302 11.2903 16.7899 12.7778 16.8485C14.1172 16.9003 15.4497 16.6274 16.6667 16.0521C16.9947 15.8943 17.2727 15.6453 17.4692 15.3334C17.6657 15.0216 17.7726 14.6595 17.7778 14.2885V4.45778C17.7774 4.1403 17.7037 3.82742 17.5627 3.54465C17.4218 3.26189 17.2175 3.01725 16.9667 2.83071ZM15.5556 14.1064C14.6699 14.4523 13.725 14.611 12.7778 14.5729C11.5725 14.5075 10.3912 14.2022 9.3 13.674C7.94634 13.0434 6.48599 12.6879 5.00001 12.6273C4.0639 12.6107 3.1298 12.7217 2.22224 12.9572V3.67269C3.10553 3.31694 4.05169 3.15417 5.00001 3.19481C6.20529 3.26021 7.38656 3.56553 8.47779 4.09368C9.83145 4.72431 11.2918 5.07982 12.7778 5.14047C13.7145 5.15463 14.6487 5.03982 15.5556 4.79912V14.1064Z" fill="white"/>
</svg>
