<svg width="11" height="11" viewBox="0 0 11 11" fill="none" xmlns="http://www.w3.org/2000/svg">
<path d="M5.45454 8.71635C5.56242 8.71635 5.66788 8.68795 5.75758 8.63474C5.84728 8.58154 5.91719 8.50591 5.95848 8.41742C5.99976 8.32894 6.01056 8.23157 5.98952 8.13764C5.96847 8.04371 5.91652 7.95742 5.84024 7.8897C5.76396 7.82198 5.66676 7.77586 5.56096 7.75717C5.45515 7.73849 5.34548 7.74808 5.24581 7.78473C5.14614 7.82138 5.06095 7.88345 5.00102 7.96308C4.94108 8.04271 4.90909 8.13634 4.90909 8.23211C4.90909 8.36054 4.96656 8.48371 5.06885 8.57452C5.17114 8.66534 5.30988 8.71635 5.45454 8.71635ZM8.18182 8.71635C8.2897 8.71635 8.39515 8.68795 8.48485 8.63474C8.57455 8.58154 8.64447 8.50591 8.68575 8.41742C8.72703 8.32894 8.73784 8.23157 8.71679 8.13764C8.69574 8.04371 8.64379 7.95742 8.56751 7.8897C8.49123 7.82198 8.39404 7.77586 8.28823 7.75717C8.18242 7.73849 8.07275 7.74808 7.97308 7.78473C7.87341 7.82138 7.78822 7.88345 7.72829 7.96308C7.66835 8.04271 7.63636 8.13634 7.63636 8.23211C7.63636 8.36054 7.69383 8.48371 7.79612 8.57452C7.89841 8.66534 8.03715 8.71635 8.18182 8.71635ZM8.18182 6.77939C8.2897 6.77939 8.39515 6.75099 8.48485 6.69778C8.57455 6.64457 8.64447 6.56894 8.68575 6.48046C8.72703 6.39197 8.73784 6.29461 8.71679 6.20067C8.69574 6.10674 8.64379 6.02046 8.56751 5.95273C8.49123 5.88501 8.39404 5.83889 8.28823 5.82021C8.18242 5.80152 8.07275 5.81111 7.97308 5.84776C7.87341 5.88441 7.78822 5.94648 7.72829 6.02611C7.66835 6.10575 7.63636 6.19937 7.63636 6.29514C7.63636 6.42357 7.69383 6.54674 7.79612 6.63755C7.89841 6.72837 8.03715 6.77939 8.18182 6.77939ZM5.45454 6.77939C5.56242 6.77939 5.66788 6.75099 5.75758 6.69778C5.84728 6.64457 5.91719 6.56894 5.95848 6.48046C5.99976 6.39197 6.01056 6.29461 5.98952 6.20067C5.96847 6.10674 5.91652 6.02046 5.84024 5.95273C5.76396 5.88501 5.66676 5.83889 5.56096 5.82021C5.45515 5.80152 5.34548 5.81111 5.24581 5.84776C5.14614 5.88441 5.06095 5.94648 5.00102 6.02611C4.94108 6.10575 4.90909 6.19937 4.90909 6.29514C4.90909 6.42357 4.96656 6.54674 5.06885 6.63755C5.17114 6.72837 5.30988 6.77939 5.45454 6.77939ZM9.27272 0.968484H8.72727V0.484242C8.72727 0.355813 8.6698 0.232644 8.56751 0.141831C8.46522 0.0510182 8.32648 0 8.18182 0C8.03715 0 7.89841 0.0510182 7.79612 0.141831C7.69383 0.232644 7.63636 0.355813 7.63636 0.484242V0.968484H3.27273V0.484242C3.27273 0.355813 3.21526 0.232644 3.11297 0.141831C3.01067 0.0510182 2.87194 0 2.72727 0C2.58261 0 2.44387 0.0510182 2.34158 0.141831C2.23928 0.232644 2.18182 0.355813 2.18182 0.484242V0.968484H1.63636C1.20237 0.968484 0.786157 1.12154 0.47928 1.39398C0.172402 1.66642 0 2.03592 0 2.42121V9.20059C0 9.58588 0.172402 9.95539 0.47928 10.2278C0.786157 10.5003 1.20237 10.6533 1.63636 10.6533H9.27272C9.70671 10.6533 10.1229 10.5003 10.4298 10.2278C10.7367 9.95539 10.9091 9.58588 10.9091 9.20059V2.42121C10.9091 2.03592 10.7367 1.66642 10.4298 1.39398C10.1229 1.12154 9.70671 0.968484 9.27272 0.968484ZM9.81818 9.20059C9.81818 9.32902 9.76071 9.45219 9.65842 9.54301C9.55613 9.63382 9.41739 9.68484 9.27272 9.68484H1.63636C1.4917 9.68484 1.35296 9.63382 1.25067 9.54301C1.14838 9.45219 1.09091 9.32902 1.09091 9.20059V4.84242H9.81818V9.20059ZM9.81818 3.87393H1.09091V2.42121C1.09091 2.29278 1.14838 2.16961 1.25067 2.0788C1.35296 1.98799 1.4917 1.93697 1.63636 1.93697H2.18182V2.42121C2.18182 2.54964 2.23928 2.67281 2.34158 2.76362C2.44387 2.85443 2.58261 2.90545 2.72727 2.90545C2.87194 2.90545 3.01067 2.85443 3.11297 2.76362C3.21526 2.67281 3.27273 2.54964 3.27273 2.42121V1.93697H7.63636V2.42121C7.63636 2.54964 7.69383 2.67281 7.79612 2.76362C7.89841 2.85443 8.03715 2.90545 8.18182 2.90545C8.32648 2.90545 8.46522 2.85443 8.56751 2.76362C8.6698 2.67281 8.72727 2.54964 8.72727 2.42121V1.93697H9.27272C9.41739 1.93697 9.55613 1.98799 9.65842 2.0788C9.76071 2.16961 9.81818 2.29278 9.81818 2.42121V3.87393ZM2.72727 6.77939C2.83515 6.77939 2.94061 6.75099 3.03031 6.69778C3.12001 6.64457 3.18992 6.56894 3.23121 6.48046C3.27249 6.39197 3.28329 6.29461 3.26225 6.20067C3.2412 6.10674 3.18925 6.02046 3.11297 5.95273C3.03668 5.88501 2.93949 5.83889 2.83368 5.82021C2.72788 5.80152 2.6182 5.81111 2.51854 5.84776C2.41887 5.88441 2.33368 5.94648 2.27374 6.02611C2.21381 6.10575 2.18182 6.19937 2.18182 6.29514C2.18182 6.42357 2.23928 6.54674 2.34158 6.63755C2.44387 6.72837 2.58261 6.77939 2.72727 6.77939ZM2.72727 8.71635C2.83515 8.71635 2.94061 8.68795 3.03031 8.63474C3.12001 8.58154 3.18992 8.50591 3.23121 8.41742C3.27249 8.32894 3.28329 8.23157 3.26225 8.13764C3.2412 8.04371 3.18925 7.95742 3.11297 7.8897C3.03668 7.82198 2.93949 7.77586 2.83368 7.75717C2.72788 7.73849 2.6182 7.74808 2.51854 7.78473C2.41887 7.82138 2.33368 7.88345 2.27374 7.96308C2.21381 8.04271 2.18182 8.13634 2.18182 8.23211C2.18182 8.36054 2.23928 8.48371 2.34158 8.57452C2.44387 8.66534 2.58261 8.71635 2.72727 8.71635Z" fill="#5F6774"/>
</svg>
