<svg width="20" height="20" viewBox="0 0 20 20" fill="none" xmlns="http://www.w3.org/2000/svg">
<path d="M10.4898 0.943237C11.1634 2.89207 12.4858 4.53566 14.2249 5.58545C15.9641 6.63524 18.0087 7.02415 20 6.68389C19.9235 7.61323 19.5604 8.49359 18.9632 9.19771C18.3659 9.90182 17.5655 10.3932 16.6776 10.6009V17.5479L18.5854 17.5488V19.5024H1.41556V17.5488H3.32332V10.6009C2.43538 10.3931 1.63492 9.90172 1.03755 9.19765C0.440184 8.49357 0.076839 7.61327 0 6.68389C1.99143 7.0247 4.03646 6.63618 5.77597 5.58654C7.51549 4.5369 8.83829 2.89325 9.51209 0.944214H10.4898V0.943237ZM14.7699 10.7103H5.23108V17.5479H14.7699V10.7103ZM10.0005 4.19208L9.89555 4.34348C8.39271 6.45191 6.19244 7.92878 3.70487 8.49879L3.36338 8.57009L4.00534 8.75568H15.9985L16.6357 8.57009L16.6252 8.56814C14.0067 8.05798 11.6756 6.54737 10.1045 4.3425L10.0005 4.1911V4.19208Z" fill="white"/>
</svg>
