<svg width="12" height="13" viewBox="0 0 12 13" fill="none" xmlns="http://www.w3.org/2000/svg">
<path d="M11.9744 11.3402L9.32652 4.33991C9.2899 4.24338 9.23463 4.15501 9.16387 4.07985C9.09311 4.00469 9.00825 3.94422 8.91413 3.90188C8.82 3.85954 8.71846 3.83616 8.61531 3.83309C8.51216 3.83002 8.40941 3.8473 8.31294 3.88396L7.0715 4.3517V3.20005C7.0715 2.9999 6.99203 2.80795 6.85057 2.66642C6.70911 2.52489 6.51725 2.44539 6.3172 2.44539H4.32147V1.62783C4.32147 1.42768 4.242 1.23573 4.10054 1.0942C3.95909 0.952678 3.76723 0.873169 3.56718 0.873169H0.785722C0.577335 0.873169 0.377484 0.955991 0.230133 1.10341C0.0827811 1.25084 0 1.45079 0 1.65928V12.2717C0 12.376 0.0413906 12.476 0.115066 12.5497C0.188742 12.6234 0.288668 12.6648 0.392861 12.6648H6.67864C6.78283 12.6648 6.88275 12.6234 6.95643 12.5497C7.03011 12.476 7.0715 12.376 7.0715 12.2717V7.26816L9.0358 12.4604C9.05411 12.5087 9.08174 12.5529 9.11712 12.5904C9.1525 12.628 9.19493 12.6583 9.242 12.6794C9.28906 12.7006 9.33983 12.7123 9.3914 12.7138C9.44298 12.7154 9.49435 12.7067 9.54259 12.6884L11.7465 11.8472C11.7948 11.8289 11.8389 11.8013 11.8765 11.7659C11.9141 11.7305 11.9443 11.688 11.9654 11.6409C11.9866 11.5939 11.9983 11.5431 11.9998 11.4915C12.0014 11.4399 11.9927 11.3885 11.9744 11.3402ZM3.53575 11.8787H0.785722V1.65928H3.53575V11.8787ZM6.28577 11.8787H4.32147V3.23149H6.28577V11.8787ZM9.62902 11.7804L7.12257 5.16532L8.59187 4.60718L11.1022 11.2223L9.62902 11.7804Z" fill="white"/>
</svg>
