<svg width="20" height="21" viewBox="0 0 20 21" fill="none" xmlns="http://www.w3.org/2000/svg">
<path fill-rule="evenodd" clip-rule="evenodd" d="M8.5581 0.388356C8.84691 0.137622 9.21325 0 9.59189 0C9.97052 0 10.3369 0.137622 10.6257 0.388356L18.6189 7.33278C18.7959 7.48644 18.9381 7.67772 19.0357 7.89333C19.1332 8.10893 19.1838 8.3437 19.1838 8.58132V18.8435C19.1838 19.2777 19.0153 19.6941 18.7155 20.0011C18.4157 20.3081 18.0091 20.4806 17.5851 20.4806H11.457C11.245 20.4806 11.0417 20.3944 10.8918 20.2409C10.7419 20.0873 10.6577 19.8791 10.6577 19.6621V12.841H8.52612V19.6621C8.52612 19.8791 8.44191 20.0873 8.29201 20.2409C8.1421 20.3944 7.93879 20.4806 7.7268 20.4806H1.59865C1.17466 20.4806 0.768038 20.3081 0.468233 20.0011C0.168429 19.6941 0 19.2777 0 18.8435V8.58132C0 8.10111 0.206758 7.64383 0.564856 7.33278L8.5581 0.388356ZM9.59189 1.63689L1.59865 8.58132V18.8435H6.92747V12.0224C6.92747 11.8053 7.01169 11.5971 7.16159 11.4436C7.31149 11.2901 7.51481 11.2039 7.7268 11.2039H11.457C11.669 11.2039 11.8723 11.2901 12.0222 11.4436C12.1721 11.5971 12.2563 11.8053 12.2563 12.0224V18.8435H17.5851V8.58132L9.59189 1.63689Z" fill="white"/>
</svg>
