<svg width="14" height="14" viewBox="0 0 14 14" fill="none" xmlns="http://www.w3.org/2000/svg">
<g opacity="0.2">
<path d="M12.3462 1.07692H10.1923V0H9.11538V1.07692H4.80769V0H3.73077V1.07692H1.57692C0.984615 1.07692 0.5 1.56154 0.5 2.15385V12.9231C0.5 13.5154 0.984615 14 1.57692 14H12.3462C12.9385 14 13.4231 13.5154 13.4231 12.9231V2.15385C13.4231 1.56154 12.9385 1.07692 12.3462 1.07692ZM12.3462 12.9231H1.57692V5.38462H12.3462V12.9231ZM12.3462 4.30769H1.57692V2.15385H3.73077V3.23077H4.80769V2.15385H9.11538V3.23077H10.1923V2.15385H12.3462V4.30769Z" fill="black"/>
</g>
</svg>
