<svg width="12" height="11" viewBox="0 0 12 11" fill="none" xmlns="http://www.w3.org/2000/svg">
<path d="M6 0C4.81331 0 3.65328 0.312403 2.66658 0.897704C1.67989 1.483 0.910851 2.31491 0.456725 3.28823C0.00259968 4.26155 -0.11622 5.33257 0.115291 6.36584C0.346802 7.39911 0.918247 8.34823 1.75736 9.09317C2.59648 9.83812 3.66557 10.3454 4.82946 10.551C5.99335 10.7565 7.19975 10.651 8.2961 10.2479C9.39246 9.84469 10.3295 9.16196 10.9888 8.28599C11.6481 7.41003 12 6.38017 12 5.32666C11.9983 3.91442 11.3656 2.56046 10.2407 1.56186C9.11587 0.563249 7.59076 0.00155091 6 0ZM6 9.58799C5.05065 9.58799 4.12262 9.33806 3.33326 8.86982C2.54391 8.40158 1.92868 7.73605 1.56538 6.9574C1.20208 6.17874 1.10702 5.32193 1.29223 4.49532C1.47744 3.6687 1.9346 2.9094 2.60589 2.31345C3.27718 1.71749 4.13246 1.31164 5.06357 1.14721C5.99468 0.982788 6.9598 1.06718 7.83688 1.38971C8.71397 1.71224 9.46362 2.25842 9.99105 2.95919C10.5185 3.65996 10.8 4.48385 10.8 5.32666C10.7984 6.4564 10.2922 7.53947 9.39236 8.33832C8.49253 9.13716 7.27255 9.58658 6 9.58799ZM6.6 5.19296V2.66333C6.6 2.52206 6.53679 2.38657 6.42426 2.28668C6.31174 2.18678 6.15913 2.13066 6 2.13066C5.84087 2.13066 5.68826 2.18678 5.57574 2.28668C5.46322 2.38657 5.4 2.52206 5.4 2.66333V5.32666C5.40008 5.41435 5.42439 5.50068 5.4708 5.57808L6.3708 7.06901C6.40799 7.13071 6.45851 7.18529 6.51946 7.22966C6.58041 7.27402 6.65061 7.3073 6.72605 7.32758C6.80149 7.34786 6.88069 7.35475 6.95913 7.34785C7.03757 7.34096 7.11371 7.32042 7.1832 7.2874C7.2527 7.25439 7.31419 7.20954 7.36416 7.15543C7.41413 7.10131 7.45161 7.03899 7.47445 6.97202C7.4973 6.90505 7.50506 6.83473 7.49729 6.7651C7.48953 6.69546 7.46639 6.62787 7.4292 6.56617L6.6 5.19296Z" fill="#5F6774"/>
</svg>
