<svg width="10" height="14" viewBox="0 0 10 14" fill="none" xmlns="http://www.w3.org/2000/svg">
<path opacity="0.2" fill-rule="evenodd" clip-rule="evenodd" d="M5 0.874948C4.07174 0.874948 3.1815 1.2437 2.52513 1.90007C1.86875 2.55645 1.5 3.44669 1.5 4.37495C1.5 5.30321 1.86875 6.19344 2.52513 6.84982C3.1815 7.5062 4.07174 7.87495 5 7.87495C5.92826 7.87495 6.8185 7.5062 7.47487 6.84982C8.13125 6.19344 8.5 5.30321 8.5 4.37495C8.5 3.44669 8.13125 2.55645 7.47487 1.90007C6.8185 1.2437 5.92826 0.874948 5 0.874948V0.874948ZM0.625 4.37495C0.625011 3.52831 0.870675 2.69986 1.3322 1.99008C1.79372 1.2803 2.45128 0.719673 3.22511 0.376202C3.99895 0.0327308 4.85582 -0.0788311 5.69181 0.0550461C6.5278 0.188923 7.30698 0.562488 7.93486 1.13043C8.56274 1.69838 9.01234 2.43631 9.22914 3.25472C9.44593 4.07313 9.4206 4.93686 9.15623 5.74116C8.89185 6.54547 8.39979 7.25578 7.73971 7.78596C7.07963 8.31614 6.27989 8.64341 5.4375 8.72807V10.4999H7.1875C7.30353 10.4999 7.41481 10.546 7.49686 10.6281C7.57891 10.7101 7.625 10.8214 7.625 10.9374C7.625 11.0535 7.57891 11.1648 7.49686 11.2468C7.41481 11.3289 7.30353 11.3749 7.1875 11.3749H5.4375V13.5624C5.4375 13.6785 5.39141 13.7898 5.30936 13.8718C5.22731 13.9539 5.11603 13.9999 5 13.9999C4.88397 13.9999 4.77269 13.9539 4.69064 13.8718C4.60859 13.7898 4.5625 13.6785 4.5625 13.5624V11.3749H2.8125C2.69647 11.3749 2.58519 11.3289 2.50314 11.2468C2.42109 11.1648 2.375 11.0535 2.375 10.9374C2.375 10.8214 2.42109 10.7101 2.50314 10.6281C2.58519 10.546 2.69647 10.4999 2.8125 10.4999H4.5625V8.72807C3.48335 8.61961 2.48295 8.11418 1.75539 7.30982C1.02784 6.50546 0.624986 5.45954 0.625 4.37495V4.37495Z" fill="black"/>
</svg>
