<svg width="14" height="14" viewBox="0 0 14 14" fill="none" xmlns="http://www.w3.org/2000/svg">
<path opacity="0.2" d="M12.5999 7C12.5999 6.2279 11.972 5.6 11.1999 5.6H10.4999V3.5C10.4999 1.5701 8.9298 0 6.9999 0C5.07 0 3.4999 1.5701 3.4999 3.5V5.6H2.7999C2.0278 5.6 1.3999 6.2279 1.3999 7V12.6C1.3999 13.3721 2.0278 14 2.7999 14H11.1999C11.972 14 12.5999 13.3721 12.5999 12.6V7ZM4.8999 3.5C4.8999 2.3422 5.8421 1.4 6.9999 1.4C8.1577 1.4 9.0999 2.3422 9.0999 3.5V5.6H4.8999V3.5Z" fill="#212121"/>
</svg>
