<svg width="12" height="14" viewBox="0 0 12 14" fill="none" xmlns="http://www.w3.org/2000/svg">
<g opacity="0.2">
<path fill-rule="evenodd" clip-rule="evenodd" d="M5.86197 0.00123664C7.90581 0.00123664 9.57028 1.66571 9.57028 3.71165L9.5702 4.81518C10.8128 5.24761 11.7066 6.43052 11.7066 7.81878V10.8208C11.7066 12.5742 10.2808 14 8.52743 14H3.17915C1.42579 14 0 12.5742 0 10.8208V7.81878C0 6.43078 0.893494 5.24806 2.13568 4.81542L2.13616 3.71165C2.14036 2.70372 2.53023 1.7735 3.23368 1.07635C3.93782 0.378507 4.86735 -0.0253613 5.86197 0.00123664ZM8.52743 5.68955H3.17915C2.00464 5.68955 1.04992 6.64428 1.04992 7.81878V10.8208C1.04992 11.9954 2.00464 12.9501 3.17915 12.9501H8.52743C9.70124 12.9501 10.6567 11.9954 10.6567 10.8208V7.81878C10.6567 6.64428 9.70124 5.68955 8.52743 5.68955ZM5.85315 8.01743C6.14293 8.01743 6.37811 8.25261 6.37811 8.54239V10.097C6.37811 10.3867 6.14293 10.6219 5.85315 10.6219C5.56337 10.6219 5.32819 10.3867 5.32819 10.097V8.54239C5.32819 8.25261 5.56337 8.01743 5.85315 8.01743ZM5.85987 1.05115H5.84867C5.13963 1.05115 4.47538 1.32413 3.97352 1.82179C3.46816 2.32155 3.18888 2.9886 3.18608 3.69975L3.18545 4.63924H8.51973L8.52036 3.71165C8.52036 2.24456 7.32696 1.05115 5.85987 1.05115Z" fill="black"/>
</g>
</svg>
