<svg width="14" height="16" viewBox="0 0 14 16" fill="none" xmlns="http://www.w3.org/2000/svg">
<path fill-rule="evenodd" clip-rule="evenodd" d="M9.76491 0.666504C10.048 0.666504 10.2777 0.895712 10.2777 1.17813L10.278 1.75648C11.2764 1.82477 12.1056 2.16594 12.6924 2.75264C13.3331 3.39456 13.6702 4.31753 13.6668 5.42469V11.6481C13.6668 13.9211 12.2199 15.3332 9.89175 15.3332H4.10852C1.78033 15.3332 0.333496 13.9013 0.333496 11.5963V5.42333C0.333496 3.2794 1.62379 1.90323 3.72814 1.75671L3.72856 1.17813C3.72856 0.895712 3.9583 0.666504 4.24138 0.666504C4.52445 0.666504 4.7542 0.895712 4.7542 1.17813L4.75399 1.74365H9.25175L9.25209 1.17813C9.25209 0.895712 9.48184 0.666504 9.76491 0.666504ZM12.6411 6.74052H1.35913V11.5963C1.35913 13.3467 2.33554 14.3099 4.10852 14.3099H9.89175C11.6647 14.3099 12.6412 13.3644 12.6412 11.6481L12.6411 6.74052ZM9.25175 2.7669H4.75399L4.7542 3.42314C4.7542 3.70556 4.52445 3.93477 4.24138 3.93477C3.9583 3.93477 3.72856 3.70556 3.72856 3.42314L3.7282 2.78238C2.19642 2.91076 1.35913 3.83712 1.35913 5.42333V5.71727H12.6411L12.6412 5.42333C12.6439 4.58085 12.4169 3.92597 11.9663 3.47574C11.5707 3.07995 10.9925 2.84357 10.2783 2.78271L10.2777 3.42314C10.2777 3.70556 10.048 3.93477 9.76491 3.93477C9.48184 3.93477 9.25209 3.70556 9.25209 3.42314L9.25175 2.7669Z" fill="#667085"/>
</svg>
