<svg width="13" height="14" viewBox="0 0 13 14" fill="none" xmlns="http://www.w3.org/2000/svg">
<g opacity="0.2">
<path fill-rule="evenodd" clip-rule="evenodd" d="M8.98177 0C9.25135 0 9.47014 0.21879 9.47014 0.48837L9.47044 1.04043C10.4212 1.10561 11.2108 1.43128 11.7697 1.99131C12.3798 2.60405 12.7009 3.48507 12.6976 4.5419V10.4824C12.6976 12.6521 11.3198 14 9.10256 14H3.59505C1.37785 14 0 12.6332 0 10.4329V4.5406C0 2.49413 1.22877 1.18051 3.2328 1.04065L3.2332 0.48837C3.2332 0.21879 3.45199 0 3.72157 0C3.99115 0 4.20994 0.21879 4.20994 0.48837L4.20975 1.02818H8.49308L8.4934 0.48837C8.4934 0.21879 8.71219 0 8.98177 0ZM11.7209 5.79793H0.97674V10.4329C0.97674 12.1038 1.9066 13.0233 3.59505 13.0233H9.10256C10.791 13.0233 11.7209 12.1208 11.7209 10.4824L11.7209 5.79793ZM9.24725 9.89522C9.51683 9.89522 9.73562 10.114 9.73562 10.3836C9.73562 10.6532 9.51683 10.872 9.24725 10.872C8.97767 10.872 8.75628 10.6532 8.75628 10.3836C8.75628 10.114 8.97181 9.89522 9.24139 9.89522H9.24725ZM6.35773 9.89522C6.62731 9.89522 6.8461 10.114 6.8461 10.3836C6.8461 10.6532 6.62731 10.872 6.35773 10.872C6.08815 10.872 5.86675 10.6532 5.86675 10.3836C5.86675 10.114 6.08229 9.89522 6.35187 9.89522H6.35773ZM3.46215 9.89522C3.73173 9.89522 3.95052 10.114 3.95052 10.3836C3.95052 10.6532 3.73173 10.872 3.46215 10.872C3.19257 10.872 2.97053 10.6532 2.97053 10.3836C2.97053 10.114 3.18671 9.89522 3.45629 9.89522H3.46215ZM9.24725 7.36436C9.51683 7.36436 9.73562 7.58315 9.73562 7.85273C9.73562 8.12231 9.51683 8.3411 9.24725 8.3411C8.97767 8.3411 8.75628 8.12231 8.75628 7.85273C8.75628 7.58315 8.97181 7.36436 9.24139 7.36436H9.24725ZM6.35773 7.36436C6.62731 7.36436 6.8461 7.58315 6.8461 7.85273C6.8461 8.12231 6.62731 8.3411 6.35773 8.3411C6.08815 8.3411 5.86675 8.12231 5.86675 7.85273C5.86675 7.58315 6.08229 7.36436 6.35187 7.36436H6.35773ZM3.46215 7.36436C3.73173 7.36436 3.95052 7.58315 3.95052 7.85273C3.95052 8.12231 3.73173 8.3411 3.46215 8.3411C3.19257 8.3411 2.97053 8.12231 2.97053 7.85273C2.97053 7.58315 3.18671 7.36436 3.45629 7.36436H3.46215ZM8.49308 2.00492H4.20975L4.20994 2.63134C4.20994 2.90092 3.99115 3.11971 3.72157 3.11971C3.45199 3.11971 3.2332 2.90092 3.2332 2.63134L3.23286 2.0197C1.77411 2.14225 0.97674 3.0265 0.97674 4.5406V4.82119H11.7209L11.7209 4.5406C11.7235 3.73642 11.5073 3.11131 11.0782 2.68154C10.7015 2.30374 10.1508 2.07811 9.4707 2.02002L9.47014 2.63134C9.47014 2.90092 9.25135 3.11971 8.98177 3.11971C8.71219 3.11971 8.4934 2.90092 8.4934 2.63134L8.49308 2.00492Z" fill="black"/>
</g>
</svg>
