<svg width="12" height="11" viewBox="0 0 12 11" fill="none" xmlns="http://www.w3.org/2000/svg">
<path fill-rule="evenodd" clip-rule="evenodd" d="M6.85714 4.56566H5.14286V9.89225H6.85714V4.56566ZM11.1429 0.760943H9.42857V9.89225H11.1429V0.760943ZM9.42857 0C9.20124 0 8.98323 0.0801705 8.82248 0.222875C8.66173 0.365579 8.57143 0.559128 8.57143 0.760943V9.89225C8.57143 10.0941 8.66173 10.2876 8.82248 10.4303C8.98323 10.573 9.20124 10.6532 9.42857 10.6532H11.1429C11.3702 10.6532 11.5882 10.573 11.7489 10.4303C11.9097 10.2876 12 10.0941 12 9.89225V0.760943C12 0.559128 11.9097 0.365579 11.7489 0.222875C11.5882 0.0801705 11.3702 0 11.1429 0H9.42857ZM4.28571 4.56566C4.28571 4.36384 4.37602 4.17029 4.53677 4.02759C4.69751 3.88488 4.91553 3.80471 5.14286 3.80471H6.85714C7.08447 3.80471 7.30249 3.88488 7.46323 4.02759C7.62398 4.17029 7.71429 4.36384 7.71429 4.56566V9.89225C7.71429 10.0941 7.62398 10.2876 7.46323 10.4303C7.30249 10.573 7.08447 10.6532 6.85714 10.6532H5.14286C4.91553 10.6532 4.69751 10.573 4.53677 10.4303C4.37602 10.2876 4.28571 10.0941 4.28571 9.89225V4.56566ZM0 7.60943C0 7.40761 0.0903058 7.21406 0.251051 7.07136C0.411797 6.92865 0.629814 6.84848 0.857143 6.84848H2.57143C2.79876 6.84848 3.01677 6.92865 3.17752 7.07136C3.33827 7.21406 3.42857 7.40761 3.42857 7.60943V9.89225C3.42857 10.0941 3.33827 10.2876 3.17752 10.4303C3.01677 10.573 2.79876 10.6532 2.57143 10.6532H0.857143C0.629814 10.6532 0.411797 10.573 0.251051 10.4303C0.0903058 10.2876 0 10.0941 0 9.89225V7.60943Z" fill="#5F6774"/>
</svg>
