<svg width="11" height="14" viewBox="0 0 11 14" fill="none" xmlns="http://www.w3.org/2000/svg">
<path opacity="0.2" d="M5.44338 14C4.46119 13.1622 3.55079 12.2437 2.72169 11.2542C1.47749 9.76816 6.83451e-07 7.55503 6.83451e-07 5.44611C-0.00053891 4.36907 0.318445 3.31607 0.916583 2.42039C1.51472 1.5247 2.36513 0.826592 3.36018 0.414403C4.35522 0.00221369 5.45019 -0.105524 6.50649 0.104825C7.56279 0.315174 8.53295 0.834154 9.29419 1.59609C9.80101 2.10065 10.2027 2.70073 10.4761 3.36159C10.7495 4.02244 10.889 4.73095 10.8868 5.44611C10.8868 7.55503 9.40928 9.76816 8.16508 11.2542C7.33597 12.2437 6.42557 13.1622 5.44338 14ZM5.44338 3.11323C4.82467 3.11323 4.23129 3.35902 3.79379 3.79652C3.35629 4.23402 3.11051 4.82739 3.11051 5.44611C3.11051 6.06483 3.35629 6.65821 3.79379 7.09571C4.23129 7.53321 4.82467 7.77899 5.44338 7.77899C6.0621 7.77899 6.65548 7.53321 7.09298 7.09571C7.53048 6.65821 7.77626 6.06483 7.77626 5.44611C7.77626 4.82739 7.53048 4.23402 7.09298 3.79652C6.65548 3.35902 6.0621 3.11323 5.44338 3.11323Z" fill="black"/>
</svg>
