<svg width="14" height="14" viewBox="0 0 14 14" fill="none" xmlns="http://www.w3.org/2000/svg">
<g opacity="0.2">
<path fill-rule="evenodd" clip-rule="evenodd" d="M5.74773 0C8.91698 0 11.4949 2.57789 11.4949 5.74714C11.4949 7.24238 10.9211 8.60612 9.98205 9.62962L13.6003 13.244C13.7732 13.4169 13.7738 13.6966 13.6009 13.8696C13.5147 13.9569 13.4008 14 13.2875 14C13.1748 14 13.0614 13.9569 12.9747 13.8708L9.33416 10.2354C8.35046 11.0232 7.10318 11.4949 5.74773 11.4949C2.57848 11.4949 0 8.91639 0 5.74714C0 2.57789 2.57848 0 5.74773 0ZM5.74773 0.885265C3.06656 0.885265 0.885265 3.06597 0.885265 5.74714C0.885265 8.42832 3.06656 10.6096 5.74773 10.6096C8.42832 10.6096 10.6096 8.42832 10.6096 5.74714C10.6096 3.06597 8.42832 0.885265 5.74773 0.885265Z" fill="#212121"/>
</g>
</svg>
