<svg width="9" height="4" viewBox="0 0 9 4" fill="none" xmlns="http://www.w3.org/2000/svg">
<path d="M3.7381 3.81768L0.532856 0.886515C0.154589 0.54164 0.462015 1.96608e-07 1.0361 1.96608e-07H7.44659C7.57507 -8.79347e-05 7.70086 0.0294549 7.8089 0.085091C7.91693 0.140727 8.00263 0.220098 8.05573 0.313699C8.10883 0.407299 8.12709 0.511162 8.10831 0.612849C8.08952 0.714536 8.03451 0.809736 7.94984 0.88705L4.74459 3.81715C4.68186 3.87458 4.6045 3.92061 4.5177 3.95214C4.4309 3.98368 4.33668 4 4.24135 4C4.14602 4 4.05179 3.98368 3.96499 3.95214C3.87819 3.92061 3.80083 3.87458 3.7381 3.81715V3.81768Z" fill="#212121"/>
</svg>
