<svg width="50" height="50" viewBox="0 0 50 50" fill="none" xmlns="http://www.w3.org/2000/svg">
<path d="M24.75 0C19.8549 0 15.0698 1.45156 10.9996 4.17113C6.92953 6.89069 3.75726 10.7561 1.88399 15.2786C0.0107238 19.8011 -0.479409 24.7775 0.475575 29.5785C1.43056 34.3795 3.78777 38.7895 7.24912 42.2509C10.7105 45.7122 15.1205 48.0694 19.9215 49.0244C24.7226 49.9794 29.6989 49.4893 34.2214 47.616C38.7439 45.7427 42.6093 42.5705 45.3289 38.5004C48.0484 34.4302 49.5 29.6451 49.5 24.75C49.4925 18.1882 46.8825 11.8973 42.2426 7.25737C37.6027 2.61747 31.3118 0.00748638 24.75 0ZM24.75 45.9643C19.1236 45.9643 13.7277 43.7292 9.74924 39.7508C5.77079 35.7723 3.53573 30.3764 3.53573 24.75C3.53573 19.1236 5.77079 13.7277 9.74924 9.74923C13.7277 5.77078 19.1236 3.53571 24.75 3.53571V24.75L39.7432 39.7432C37.7769 41.7165 35.4402 43.2819 32.8672 44.3495C30.2942 45.4171 27.5357 45.9659 24.75 45.9643Z" fill="#7047EE"/>
</svg>
