<svg width="40" height="44" viewBox="0 0 40 44" fill="none" xmlns="http://www.w3.org/2000/svg">
<path d="M27.0312 39.044L23.0248 35.0376L20.8438 37.2187L27.0312 43.4062L39.4062 31.0312L37.2252 28.8501L27.0312 39.044Z" fill="#2D74FF"/>
<path d="M31.6719 4.73438H27.0312V3.1875C27.0288 2.36774 26.7021 1.58225 26.1224 1.00259C25.5427 0.422932 24.7573 0.0961983 23.9375 0.09375H11.5625C10.7427 0.0961983 9.95725 0.422932 9.37759 1.00259C8.79793 1.58225 8.4712 2.36774 8.46875 3.1875V4.73438H3.82812C3.00836 4.73682 2.22288 5.06356 1.64322 5.64322C1.06356 6.22288 0.736823 7.00836 0.734375 7.82812V40.3125C0.736823 41.1323 1.06356 41.9177 1.64322 42.4974C2.22288 43.0771 3.00836 43.4038 3.82812 43.4062H17.75V40.3125H3.82812V7.82812H8.46875V12.4688H27.0312V7.82812H31.6719V24.8438H34.7656V7.82812C34.7632 7.00836 34.4364 6.22288 33.8568 5.64322C33.2771 5.06356 32.4916 4.73682 31.6719 4.73438ZM23.9375 9.375H11.5625V3.1875H23.9375V9.375Z" fill="#2D74FF"/>
</svg>
