<svg width="50" height="37" viewBox="0 0 50 37" fill="none" xmlns="http://www.w3.org/2000/svg">
<path d="M14.275 18.1668C18.3757 18.1668 21.7 14.8396 21.7 10.7353C21.7 6.63093 18.3757 3.30371 14.275 3.30371C10.1743 3.30371 6.84998 6.63093 6.84998 10.7353C6.84998 14.8396 10.1743 18.1668 14.275 18.1668Z" fill="#D2232A"/>
<path d="M22.7313 22.2948C19.8273 20.8188 16.6221 20.2305 14.275 20.2305C9.6777 20.2305 0.25 23.0524 0.25 28.6942V33.0293H15.7188V31.3706C15.7188 29.4095 16.5438 27.4432 17.9875 25.8041C19.1394 24.4954 20.7523 23.2805 22.7313 22.2948Z" fill="#D2232A"/>
<path d="M33.6625 21.4683C28.2928 21.4683 17.575 24.7877 17.575 31.3771V36.3315H49.75V31.3771C49.75 24.7877 39.0322 21.4683 33.6625 21.4683Z" fill="#D2232A"/>
<path d="M33.6625 18.166C38.6745 18.166 42.7375 14.0994 42.7375 9.083C42.7375 4.0666 38.6745 0 33.6625 0C28.6505 0 24.5875 4.0666 24.5875 9.083C24.5875 14.0994 28.6505 18.166 33.6625 18.166Z" fill="#D2232A"/>
</svg>
